<svg width="835" height="12" viewBox="0 0 835 12" fill="none" xmlns="http://www.w3.org/2000/svg">
<circle cx="5.54208" cy="5.54208" r="5.54208" fill="#22B9FF" fill-opacity="0.5"/>
<circle cx="34.9679" cy="5.54208" r="5.54208" fill="#22B9FF" fill-opacity="0.5"/>
<circle cx="64.3932" cy="5.54208" r="5.54208" fill="#22B9FF" fill-opacity="0.5"/>
<circle cx="93.8189" cy="5.54208" r="5.54208" fill="#22B9FF" fill-opacity="0.5"/>
<circle cx="123.244" cy="5.54208" r="5.54208" fill="#22B9FF" fill-opacity="0.5"/>
<circle cx="152.67" cy="5.54208" r="5.54208" fill="#22B9FF" fill-opacity="0.5"/>
<circle cx="182.095" cy="5.54208" r="5.54208" fill="#22B9FF" fill-opacity="0.5"/>
<circle cx="211.521" cy="5.54208" r="5.54208" fill="#22B9FF" fill-opacity="0.5"/>
<circle cx="240.946" cy="5.54208" r="5.54208" fill="#22B9FF" fill-opacity="0.5"/>
<circle cx="270.372" cy="5.54208" r="5.54208" fill="#22B9FF" fill-opacity="0.5"/>
<circle cx="299.798" cy="5.54208" r="5.54208" fill="#22B9FF" fill-opacity="0.5"/>
<circle cx="329.223" cy="5.54208" r="5.54208" fill="#22B9FF" fill-opacity="0.5"/>
<circle cx="358.649" cy="5.54208" r="5.54208" fill="#22B9FF" fill-opacity="0.5"/>
<circle cx="388.074" cy="5.54208" r="5.54208" fill="#22B9FF" fill-opacity="0.5"/>
<circle cx="417.5" cy="5.54208" r="5.54208" fill="#22B9FF" fill-opacity="0.5"/>
<circle cx="446.925" cy="5.54208" r="5.54208" fill="#22B9FF" fill-opacity="0.5"/>
<circle cx="476.351" cy="5.54208" r="5.54208" fill="#22B9FF" fill-opacity="0.5"/>
<circle cx="505.777" cy="5.54208" r="5.54208" fill="#22B9FF" fill-opacity="0.5"/>
<circle cx="535.202" cy="5.54208" r="5.54208" fill="#22B9FF" fill-opacity="0.5"/>
<circle cx="564.628" cy="5.54208" r="5.54208" fill="#22B9FF" fill-opacity="0.5"/>
<circle cx="594.053" cy="5.54208" r="5.54208" fill="#22B9FF" fill-opacity="0.5"/>
<circle cx="623.479" cy="5.54208" r="5.54208" fill="#22B9FF" fill-opacity="0.5"/>
<circle cx="652.904" cy="5.54208" r="5.54208" fill="#22B9FF" fill-opacity="0.5"/>
<circle cx="682.33" cy="5.54208" r="5.54208" fill="#22B9FF" fill-opacity="0.5"/>
<circle cx="711.755" cy="5.54208" r="5.54208" fill="#22B9FF" fill-opacity="0.5"/>
<circle cx="741.181" cy="5.54208" r="5.54208" fill="#22B9FF" fill-opacity="0.5"/>
<circle cx="770.607" cy="5.54208" r="5.54208" fill="#22B9FF" fill-opacity="0.5"/>
<circle cx="800.032" cy="5.54208" r="5.54208" fill="#22B9FF" fill-opacity="0.5"/>
<circle cx="829.458" cy="5.54208" r="5.54208" fill="#22B9FF" fill-opacity="0.5"/>
</svg>
