<svg width="316" height="316" viewBox="0 0 316 316" fill="none" xmlns="http://www.w3.org/2000/svg">
<circle cx="7.46457" cy="7.46457" r="7.46457" fill="#22B9FF" fill-opacity="0.5"/>
<circle cx="34.8348" cy="7.46457" r="7.46457" fill="#22B9FF" fill-opacity="0.5"/>
<circle cx="62.2047" cy="7.46457" r="7.46457" fill="#22B9FF" fill-opacity="0.5"/>
<circle cx="89.5749" cy="7.46457" r="7.46457" fill="#22B9FF" fill-opacity="0.5"/>
<circle cx="116.945" cy="7.46457" r="7.46457" fill="#22B9FF" fill-opacity="0.5"/>
<circle cx="144.315" cy="7.46457" r="7.46457" fill="#22B9FF" fill-opacity="0.5"/>
<circle cx="171.685" cy="7.46457" r="7.46457" fill="#22B9FF" fill-opacity="0.5"/>
<circle cx="199.055" cy="7.46457" r="7.46457" fill="#22B9FF" fill-opacity="0.5"/>
<circle cx="226.425" cy="7.46457" r="7.46457" fill="#22B9FF" fill-opacity="0.5"/>
<circle cx="253.795" cy="7.46457" r="7.46457" fill="#22B9FF" fill-opacity="0.5"/>
<circle cx="281.165" cy="7.46457" r="7.46457" fill="#22B9FF" fill-opacity="0.5"/>
<circle cx="308.535" cy="7.46457" r="7.46457" fill="#22B9FF" fill-opacity="0.5"/>
<circle cx="7.46457" cy="34.8347" r="7.46457" fill="#22B9FF" fill-opacity="0.5"/>
<circle cx="34.8348" cy="34.8347" r="7.46457" fill="#22B9FF" fill-opacity="0.5"/>
<circle cx="62.2047" cy="34.8347" r="7.46457" fill="#22B9FF" fill-opacity="0.5"/>
<circle cx="89.5749" cy="34.8347" r="7.46457" fill="#22B9FF" fill-opacity="0.5"/>
<circle cx="116.945" cy="34.8347" r="7.46457" fill="#22B9FF" fill-opacity="0.5"/>
<circle cx="144.315" cy="34.8347" r="7.46457" fill="#22B9FF" fill-opacity="0.5"/>
<circle cx="171.685" cy="34.8347" r="7.46457" fill="#22B9FF" fill-opacity="0.5"/>
<circle cx="199.055" cy="34.8347" r="7.46457" fill="#22B9FF" fill-opacity="0.5"/>
<circle cx="226.425" cy="34.8347" r="7.46457" fill="#22B9FF" fill-opacity="0.5"/>
<circle cx="253.795" cy="34.8347" r="7.46457" fill="#22B9FF" fill-opacity="0.5"/>
<circle cx="281.165" cy="34.8347" r="7.46457" fill="#22B9FF" fill-opacity="0.5"/>
<circle cx="308.535" cy="34.8347" r="7.46457" fill="#22B9FF" fill-opacity="0.5"/>
<circle cx="7.46457" cy="62.2047" r="7.46457" fill="#22B9FF" fill-opacity="0.5"/>
<circle cx="34.8348" cy="62.2047" r="7.46457" fill="#22B9FF" fill-opacity="0.5"/>
<circle cx="62.2047" cy="62.2047" r="7.46457" fill="#22B9FF" fill-opacity="0.5"/>
<circle cx="89.5749" cy="62.2047" r="7.46457" fill="#22B9FF" fill-opacity="0.5"/>
<circle cx="116.945" cy="62.2047" r="7.46457" fill="#22B9FF" fill-opacity="0.5"/>
<circle cx="144.315" cy="62.2047" r="7.46457" fill="#22B9FF" fill-opacity="0.5"/>
<circle cx="171.685" cy="62.2047" r="7.46457" fill="#22B9FF" fill-opacity="0.5"/>
<circle cx="199.055" cy="62.2047" r="7.46457" fill="#22B9FF" fill-opacity="0.5"/>
<circle cx="226.425" cy="62.2047" r="7.46457" fill="#22B9FF" fill-opacity="0.5"/>
<circle cx="253.795" cy="62.2047" r="7.46457" fill="#22B9FF" fill-opacity="0.5"/>
<circle cx="281.165" cy="62.2047" r="7.46457" fill="#22B9FF" fill-opacity="0.5"/>
<circle cx="308.535" cy="62.2047" r="7.46457" fill="#22B9FF" fill-opacity="0.5"/>
<circle cx="7.46457" cy="89.5748" r="7.46457" fill="#22B9FF" fill-opacity="0.5"/>
<circle cx="34.8348" cy="89.5748" r="7.46457" fill="#22B9FF" fill-opacity="0.5"/>
<circle cx="62.2047" cy="89.5748" r="7.46457" fill="#22B9FF" fill-opacity="0.5"/>
<circle cx="89.5749" cy="89.5748" r="7.46457" fill="#22B9FF" fill-opacity="0.5"/>
<circle cx="116.945" cy="89.5748" r="7.46457" fill="#22B9FF" fill-opacity="0.5"/>
<circle cx="144.315" cy="89.5748" r="7.46457" fill="#22B9FF" fill-opacity="0.5"/>
<circle cx="171.685" cy="89.5748" r="7.46457" fill="#22B9FF" fill-opacity="0.5"/>
<circle cx="199.055" cy="89.5748" r="7.46457" fill="#22B9FF" fill-opacity="0.5"/>
<circle cx="226.425" cy="89.5748" r="7.46457" fill="#22B9FF" fill-opacity="0.5"/>
<circle cx="253.795" cy="89.5748" r="7.46457" fill="#22B9FF" fill-opacity="0.5"/>
<circle cx="281.165" cy="89.5748" r="7.46457" fill="#22B9FF" fill-opacity="0.5"/>
<circle cx="308.535" cy="89.5748" r="7.46457" fill="#22B9FF" fill-opacity="0.5"/>
<circle cx="7.46457" cy="116.945" r="7.46457" fill="#22B9FF" fill-opacity="0.5"/>
<circle cx="34.8348" cy="116.945" r="7.46457" fill="#22B9FF" fill-opacity="0.5"/>
<circle cx="62.2047" cy="116.945" r="7.46457" fill="#22B9FF" fill-opacity="0.5"/>
<circle cx="89.5749" cy="116.945" r="7.46457" fill="#22B9FF" fill-opacity="0.5"/>
<circle cx="116.945" cy="116.945" r="7.46457" fill="#22B9FF" fill-opacity="0.5"/>
<circle cx="144.315" cy="116.945" r="7.46457" fill="#22B9FF" fill-opacity="0.5"/>
<circle cx="171.685" cy="116.945" r="7.46457" fill="#22B9FF" fill-opacity="0.5"/>
<circle cx="199.055" cy="116.945" r="7.46457" fill="#22B9FF" fill-opacity="0.5"/>
<circle cx="226.425" cy="116.945" r="7.46457" fill="#22B9FF" fill-opacity="0.5"/>
<circle cx="253.795" cy="116.945" r="7.46457" fill="#22B9FF" fill-opacity="0.5"/>
<circle cx="281.165" cy="116.945" r="7.46457" fill="#22B9FF" fill-opacity="0.5"/>
<circle cx="308.535" cy="116.945" r="7.46457" fill="#22B9FF" fill-opacity="0.5"/>
<circle cx="7.46457" cy="144.315" r="7.46457" fill="#22B9FF" fill-opacity="0.5"/>
<circle cx="34.8348" cy="144.315" r="7.46457" fill="#22B9FF" fill-opacity="0.5"/>
<circle cx="62.2047" cy="144.315" r="7.46457" fill="#22B9FF" fill-opacity="0.5"/>
<circle cx="89.5749" cy="144.315" r="7.46457" fill="#22B9FF" fill-opacity="0.5"/>
<circle cx="116.945" cy="144.315" r="7.46457" fill="#22B9FF" fill-opacity="0.5"/>
<circle cx="144.315" cy="144.315" r="7.46457" fill="#22B9FF" fill-opacity="0.5"/>
<circle cx="171.685" cy="144.315" r="7.46457" fill="#22B9FF" fill-opacity="0.5"/>
<circle cx="199.055" cy="144.315" r="7.46457" fill="#22B9FF" fill-opacity="0.5"/>
<circle cx="226.425" cy="144.315" r="7.46457" fill="#22B9FF" fill-opacity="0.5"/>
<circle cx="253.795" cy="144.315" r="7.46457" fill="#22B9FF" fill-opacity="0.5"/>
<circle cx="281.165" cy="144.315" r="7.46457" fill="#22B9FF" fill-opacity="0.5"/>
<circle cx="308.535" cy="144.315" r="7.46457" fill="#22B9FF" fill-opacity="0.5"/>
<circle cx="7.46457" cy="171.685" r="7.46457" fill="#22B9FF" fill-opacity="0.5"/>
<circle cx="34.8348" cy="171.685" r="7.46457" fill="#22B9FF" fill-opacity="0.5"/>
<circle cx="62.2047" cy="171.685" r="7.46457" fill="#22B9FF" fill-opacity="0.5"/>
<circle cx="89.5749" cy="171.685" r="7.46457" fill="#22B9FF" fill-opacity="0.5"/>
<circle cx="116.945" cy="171.685" r="7.46457" fill="#22B9FF" fill-opacity="0.5"/>
<circle cx="144.315" cy="171.685" r="7.46457" fill="#22B9FF" fill-opacity="0.5"/>
<circle cx="171.685" cy="171.685" r="7.46457" fill="#22B9FF" fill-opacity="0.5"/>
<circle cx="199.055" cy="171.685" r="7.46457" fill="#22B9FF" fill-opacity="0.5"/>
<circle cx="226.425" cy="171.685" r="7.46457" fill="#22B9FF" fill-opacity="0.5"/>
<circle cx="253.795" cy="171.685" r="7.46457" fill="#22B9FF" fill-opacity="0.5"/>
<circle cx="281.165" cy="171.685" r="7.46457" fill="#22B9FF" fill-opacity="0.5"/>
<circle cx="308.535" cy="171.685" r="7.46457" fill="#22B9FF" fill-opacity="0.5"/>
<circle cx="7.46457" cy="199.055" r="7.46457" fill="#22B9FF" fill-opacity="0.5"/>
<circle cx="34.8348" cy="199.055" r="7.46457" fill="#22B9FF" fill-opacity="0.5"/>
<circle cx="62.2047" cy="199.055" r="7.46457" fill="#22B9FF" fill-opacity="0.5"/>
<circle cx="89.5749" cy="199.055" r="7.46457" fill="#22B9FF" fill-opacity="0.5"/>
<circle cx="116.945" cy="199.055" r="7.46457" fill="#22B9FF" fill-opacity="0.5"/>
<circle cx="144.315" cy="199.055" r="7.46457" fill="#22B9FF" fill-opacity="0.5"/>
<circle cx="171.685" cy="199.055" r="7.46457" fill="#22B9FF" fill-opacity="0.5"/>
<circle cx="199.055" cy="199.055" r="7.46457" fill="#22B9FF" fill-opacity="0.5"/>
<circle cx="226.425" cy="199.055" r="7.46457" fill="#22B9FF" fill-opacity="0.5"/>
<circle cx="253.795" cy="199.055" r="7.46457" fill="#22B9FF" fill-opacity="0.5"/>
<circle cx="281.165" cy="199.055" r="7.46457" fill="#22B9FF" fill-opacity="0.5"/>
<circle cx="308.535" cy="199.055" r="7.46457" fill="#22B9FF" fill-opacity="0.5"/>
<circle cx="7.46457" cy="226.425" r="7.46457" fill="#22B9FF" fill-opacity="0.5"/>
<circle cx="34.8348" cy="226.425" r="7.46457" fill="#22B9FF" fill-opacity="0.5"/>
<circle cx="62.2047" cy="226.425" r="7.46457" fill="#22B9FF" fill-opacity="0.5"/>
<circle cx="89.5749" cy="226.425" r="7.46457" fill="#22B9FF" fill-opacity="0.5"/>
<circle cx="116.945" cy="226.425" r="7.46457" fill="#22B9FF" fill-opacity="0.5"/>
<circle cx="144.315" cy="226.425" r="7.46457" fill="#22B9FF" fill-opacity="0.5"/>
<circle cx="171.685" cy="226.425" r="7.46457" fill="#22B9FF" fill-opacity="0.5"/>
<circle cx="199.055" cy="226.425" r="7.46457" fill="#22B9FF" fill-opacity="0.5"/>
<circle cx="226.425" cy="226.425" r="7.46457" fill="#22B9FF" fill-opacity="0.5"/>
<circle cx="253.795" cy="226.425" r="7.46457" fill="#22B9FF" fill-opacity="0.5"/>
<circle cx="281.165" cy="226.425" r="7.46457" fill="#22B9FF" fill-opacity="0.5"/>
<circle cx="308.535" cy="226.425" r="7.46457" fill="#22B9FF" fill-opacity="0.5"/>
<circle cx="7.46457" cy="253.795" r="7.46457" fill="#22B9FF" fill-opacity="0.5"/>
<circle cx="34.8348" cy="253.795" r="7.46457" fill="#22B9FF" fill-opacity="0.5"/>
<circle cx="62.2047" cy="253.795" r="7.46457" fill="#22B9FF" fill-opacity="0.5"/>
<circle cx="89.5749" cy="253.795" r="7.46457" fill="#22B9FF" fill-opacity="0.5"/>
<circle cx="116.945" cy="253.795" r="7.46457" fill="#22B9FF" fill-opacity="0.5"/>
<circle cx="144.315" cy="253.795" r="7.46457" fill="#22B9FF" fill-opacity="0.5"/>
<circle cx="171.685" cy="253.795" r="7.46457" fill="#22B9FF" fill-opacity="0.5"/>
<circle cx="199.055" cy="253.795" r="7.46457" fill="#22B9FF" fill-opacity="0.5"/>
<circle cx="226.425" cy="253.795" r="7.46457" fill="#22B9FF" fill-opacity="0.5"/>
<circle cx="253.795" cy="253.795" r="7.46457" fill="#22B9FF" fill-opacity="0.5"/>
<circle cx="281.165" cy="253.795" r="7.46457" fill="#22B9FF" fill-opacity="0.5"/>
<circle cx="308.535" cy="253.795" r="7.46457" fill="#22B9FF" fill-opacity="0.5"/>
<circle cx="7.46457" cy="281.165" r="7.46457" fill="#22B9FF" fill-opacity="0.5"/>
<circle cx="34.8348" cy="281.165" r="7.46457" fill="#22B9FF" fill-opacity="0.5"/>
<circle cx="62.2047" cy="281.165" r="7.46457" fill="#22B9FF" fill-opacity="0.5"/>
<circle cx="89.5749" cy="281.165" r="7.46457" fill="#22B9FF" fill-opacity="0.5"/>
<circle cx="116.945" cy="281.165" r="7.46457" fill="#22B9FF" fill-opacity="0.5"/>
<circle cx="144.315" cy="281.165" r="7.46457" fill="#22B9FF" fill-opacity="0.5"/>
<circle cx="171.685" cy="281.165" r="7.46457" fill="#22B9FF" fill-opacity="0.5"/>
<circle cx="199.055" cy="281.165" r="7.46457" fill="#22B9FF" fill-opacity="0.5"/>
<circle cx="226.425" cy="281.165" r="7.46457" fill="#22B9FF" fill-opacity="0.5"/>
<circle cx="253.795" cy="281.165" r="7.46457" fill="#22B9FF" fill-opacity="0.5"/>
<circle cx="281.165" cy="281.165" r="7.46457" fill="#22B9FF" fill-opacity="0.5"/>
<circle cx="308.535" cy="281.165" r="7.46457" fill="#22B9FF" fill-opacity="0.5"/>
<circle cx="7.46457" cy="308.535" r="7.46457" fill="#22B9FF" fill-opacity="0.5"/>
<circle cx="34.8348" cy="308.535" r="7.46457" fill="#22B9FF" fill-opacity="0.5"/>
<circle cx="62.2047" cy="308.535" r="7.46457" fill="#22B9FF" fill-opacity="0.5"/>
<circle cx="89.5749" cy="308.535" r="7.46457" fill="#22B9FF" fill-opacity="0.5"/>
<circle cx="116.945" cy="308.535" r="7.46457" fill="#22B9FF" fill-opacity="0.5"/>
<circle cx="144.315" cy="308.535" r="7.46457" fill="#22B9FF" fill-opacity="0.5"/>
<circle cx="171.685" cy="308.535" r="7.46457" fill="#22B9FF" fill-opacity="0.5"/>
<circle cx="199.055" cy="308.535" r="7.46457" fill="#22B9FF" fill-opacity="0.5"/>
<circle cx="226.425" cy="308.535" r="7.46457" fill="#22B9FF" fill-opacity="0.5"/>
<circle cx="253.795" cy="308.535" r="7.46457" fill="#22B9FF" fill-opacity="0.5"/>
<circle cx="281.165" cy="308.535" r="7.46457" fill="#22B9FF" fill-opacity="0.5"/>
<circle cx="308.535" cy="308.535" r="7.46457" fill="#22B9FF" fill-opacity="0.5"/>
</svg>
