<svg width="53" height="41" viewBox="0 0 53 41" fill="none" xmlns="http://www.w3.org/2000/svg">
<path d="M0 22.2716C0 7.08642 7.14884 0 18.2419 0C20.0117 0 21.4465 1.43477 21.4465 3.20465V7.90485C21.4465 9.13015 20.4532 10.1235 19.2279 10.1235C15.5182 10.1235 13.286 11.2069 12.1169 13.6574C10.8936 16.2215 13.4591 18.7284 16.3001 18.7284H16.4465C19.2079 18.7284 21.4465 20.967 21.4465 23.7284V36C21.4465 38.7614 19.2079 41 16.4465 41H4.99999C2.23857 41 0 38.7614 0 36V22.2716ZM50.7814 10.1235C47.0633 10.1235 44.7234 11.2118 43.4835 13.674C42.2057 16.2114 44.7661 18.7284 47.607 18.7284H48C50.7614 18.7284 53 20.967 53 23.7284V36C53 38.7614 50.7614 41 48 41H36.307C33.5455 41 31.307 38.7614 31.307 36V22.2716C31.307 7.08642 38.7023 0 49.7953 0C51.5652 0 53 1.43477 53 3.20465V7.90485C53 9.13015 52.0067 10.1235 50.7814 10.1235Z" fill="#22B9FF"/>
</svg>
