<svg width="51" height="50" viewBox="0 0 51 50" fill="none" xmlns="http://www.w3.org/2000/svg">
<rect x="1" y="0.5" width="49" height="49" rx="24.5" fill="#385490" stroke="#385490"/>
<path d="M28.1329 13C26.5198 13 24.9728 13.6408 23.8321 14.7814C22.6915 15.9221 22.0507 17.4691 22.0507 19.0822V22.4685H18.7959C18.6328 22.4685 18.5 22.6 18.5 22.7644V27.2356C18.5 27.3987 18.6315 27.5315 18.7959 27.5315H22.0507V36.7041C22.0507 36.8672 22.1822 37 22.3466 37H26.8178C26.9809 37 27.1137 36.8685 27.1137 36.7041V27.5315H30.3974C30.5329 27.5315 30.6512 27.4395 30.6841 27.3079L31.8019 22.8367C31.8129 22.7931 31.8138 22.7475 31.8046 22.7035C31.7953 22.6595 31.7761 22.6181 31.7485 22.5826C31.7208 22.5471 31.6855 22.5184 31.645 22.4986C31.6046 22.4788 31.5602 22.4685 31.5152 22.4685H27.1137V19.0822C27.1137 18.9484 27.1401 18.8158 27.1913 18.6922C27.2425 18.5685 27.3176 18.4562 27.4122 18.3615C27.5068 18.2669 27.6192 18.1918 27.7429 18.1406C27.8665 18.0894 27.999 18.063 28.1329 18.063H31.5521C31.7151 18.063 31.8479 17.9315 31.8479 17.7671V13.2959C31.8479 13.1328 31.7164 13 31.5521 13H28.1329Z" fill="white"/>
</svg>
