<svg width="51" height="50" viewBox="0 0 51 50" fill="none" xmlns="http://www.w3.org/2000/svg">
<rect x="0.5" width="50" height="50" rx="25" fill="url(#paint0_radial_433_1245)"/>
<rect x="0.5" width="50" height="50" rx="25" fill="url(#paint1_radial_433_1245)"/>
<path d="M32.25 18.25V18.265M13.5 19C13.5 17.4087 14.1321 15.8826 15.2574 14.7574C16.3826 13.6321 17.9087 13 19.5 13H31.5C33.0913 13 34.6174 13.6321 35.7426 14.7574C36.8679 15.8826 37.5 17.4087 37.5 19V31C37.5 32.5913 36.8679 34.1174 35.7426 35.2426C34.6174 36.3679 33.0913 37 31.5 37H19.5C17.9087 37 16.3826 36.3679 15.2574 35.2426C14.1321 34.1174 13.5 32.5913 13.5 31V19ZM21 25C21 26.1935 21.4741 27.3381 22.318 28.182C23.1619 29.0259 24.3065 29.5 25.5 29.5C26.6935 29.5 27.8381 29.0259 28.682 28.182C29.5259 27.3381 30 26.1935 30 25C30 23.8065 29.5259 22.6619 28.682 21.818C27.8381 20.9741 26.6935 20.5 25.5 20.5C24.3065 20.5 23.1619 20.9741 22.318 21.818C21.4741 22.6619 21 23.8065 21 25Z" stroke="white" stroke-width="2.5" stroke-linecap="round" stroke-linejoin="round"/>
<defs>
<radialGradient id="paint0_radial_433_1245" cx="0" cy="0" r="1" gradientUnits="userSpaceOnUse" gradientTransform="translate(13.7812 53.851) rotate(-90) scale(49.5537 46.0889)">
<stop stop-color="#FFDD55"/>
<stop offset="0.1" stop-color="#FFDD55"/>
<stop offset="0.5" stop-color="#FF543E"/>
<stop offset="1" stop-color="#C837AB"/>
</radialGradient>
<radialGradient id="paint1_radial_433_1245" cx="0" cy="0" r="1" gradientUnits="userSpaceOnUse" gradientTransform="translate(-7.8752 3.60176) rotate(78.681) scale(22.1508 91.3062)">
<stop stop-color="#3771C8"/>
<stop offset="0.128" stop-color="#3771C8"/>
<stop offset="1" stop-color="#6600FF" stop-opacity="0"/>
</radialGradient>
</defs>
</svg>
