<svg width="51" height="50" viewBox="0 0 51 50" fill="none" xmlns="http://www.w3.org/2000/svg">
<rect x="0.5" width="50" height="50" rx="25" fill="#32A2DC"/>
<path fill-rule="evenodd" clip-rule="evenodd" d="M35.6838 13.1642C36.0292 13.0188 36.4073 12.9687 36.7787 13.019C37.1501 13.0693 37.5012 13.2182 37.7954 13.4503C38.0897 13.6824 38.3164 13.989 38.4519 14.3384C38.5875 14.6879 38.6269 15.0672 38.5661 15.437L35.3959 34.6664C35.0884 36.5212 33.0532 37.585 31.3521 36.661C29.9291 35.888 27.8157 34.6971 25.9147 33.4545C24.9642 32.8325 22.0526 30.8406 22.4104 29.4233C22.7179 28.2114 27.6102 23.6574 30.4058 20.9499C31.503 19.8862 31.0026 19.2725 29.7069 20.251C26.4878 22.6803 21.3229 26.3747 19.6148 27.4147C18.108 28.3316 17.3225 28.4882 16.3831 28.3316C14.6694 28.0465 13.0802 27.6048 11.783 27.0666C10.0302 26.3398 10.1155 23.93 11.7816 23.2283L35.6838 13.1642Z" fill="white"/>
</svg>
