<svg width="53" height="53" viewBox="0 0 53 53" fill="none" xmlns="http://www.w3.org/2000/svg">
<rect width="53" height="53" rx="5" fill="white"/>
<path d="M37.4682 16.5126C37.1276 16.1844 36.6658 16 36.1842 16L16.8158 16C16.3342 16 15.8724 16.1844 15.5318 16.5126C15.1913 16.8408 15 17.2859 15 17.75C15 18.2141 15.1913 18.6592 15.5318 18.9874C15.8724 19.3156 16.3342 19.5 16.8158 19.5H36.1842C36.6658 19.5 37.1276 19.3156 37.4682 18.9874C37.8087 18.6592 38 18.2141 38 17.75C38 17.2859 37.8087 16.8408 37.4682 16.5126Z" fill="#242424" fill-opacity="0.5"/>
<path d="M37.4682 25.0419C37.1276 24.7137 36.6658 24.5293 36.1842 24.5293H16.8158C16.3342 24.5293 15.8724 24.7137 15.5318 25.0419C15.1913 25.37 15 25.8152 15 26.2793C15 26.7434 15.1913 27.1885 15.5318 27.5167C15.8724 27.8449 16.3342 28.0293 16.8158 28.0293H36.1842C36.6658 28.0293 37.1276 27.8449 37.4682 27.5167C37.8087 27.1885 38 26.7434 38 26.2793C38 25.8152 37.8087 25.37 37.4682 25.0419Z" fill="#242424" fill-opacity="0.5"/>
<path d="M37.4682 33.5712C37.1276 33.243 36.6658 33.0586 36.1842 33.0586H16.8158C16.3342 33.0586 15.8724 33.243 15.5318 33.5712C15.1913 33.8993 15 34.3445 15 34.8086C15 35.2727 15.1913 35.7178 15.5318 36.046C15.8724 36.3742 16.3342 36.5586 16.8158 36.5586H36.1842C36.6658 36.5586 37.1276 36.3742 37.4682 36.046C37.8087 35.7178 38 35.2727 38 34.8086C38 34.3445 37.8087 33.8993 37.4682 33.5712Z" fill="#242424" fill-opacity="0.5"/>
<rect x="0.5" y="0.5" width="52" height="52" rx="4.5" stroke="#242424" stroke-opacity="0.2"/>
</svg>
