<svg width="23" height="26" viewBox="0 0 23 26" fill="none" xmlns="http://www.w3.org/2000/svg">
<path d="M11.1429 0C14.0981 0 16.9324 1.17398 19.022 3.26367C21.1117 5.35336 22.2857 8.18759 22.2857 11.1429C22.2857 15.756 18.7695 20.5895 11.8857 25.7524C11.6714 25.9131 11.4107 26 11.1429 26C10.875 26 10.6143 25.9131 10.4 25.7524C3.51619 20.5895 0 15.756 0 11.1429C0 8.18759 1.17398 5.35336 3.26367 3.26367C5.35336 1.17398 8.18759 0 11.1429 0ZM11.1429 7.42857C10.1578 7.42857 9.21302 7.8199 8.51646 8.51646C7.8199 9.21303 7.42857 10.1578 7.42857 11.1429C7.42857 12.1279 7.8199 13.0727 8.51646 13.7693C9.21302 14.4658 10.1578 14.8571 11.1429 14.8571C12.1279 14.8571 13.0727 14.4658 13.7693 13.7693C14.4658 13.0727 14.8571 12.1279 14.8571 11.1429C14.8571 10.1578 14.4658 9.21303 13.7693 8.51646C13.0727 7.8199 12.1279 7.42857 11.1429 7.42857Z" fill="#242424"/>
</svg>
