<svg width="26" height="20" viewBox="0 0 26 20" fill="none" xmlns="http://www.w3.org/2000/svg">
<path d="M2.78571 20C2.09821 20 1.50946 19.755 1.01946 19.265C0.529457 18.775 0.284874 18.1867 0.285708 17.5V2.5C0.285708 1.8125 0.530708 1.22375 1.02071 0.733752C1.51071 0.243752 2.09904 -0.000831211 2.78571 2.12224e-06H22.7857C23.4732 2.12224e-06 24.062 0.245002 24.552 0.735002C25.042 1.225 25.2865 1.81334 25.2857 2.5V17.5C25.2857 18.1875 25.0407 18.7762 24.5507 19.2662C24.0607 19.7562 23.4724 20.0008 22.7857 20H2.78571ZM12.7857 11.25L22.7857 5V2.5L12.7857 8.75L2.78571 2.5V5L12.7857 11.25Z" fill="#242424"/>
</svg>
