<svg width="26" height="24" viewBox="0 0 26 24" fill="none" xmlns="http://www.w3.org/2000/svg">
<path d="M17.7257 15.1471L17.0937 15.7763C17.0937 15.7763 15.5896 17.2707 11.4854 13.1902C7.38129 9.10963 8.88545 7.6152 8.88545 7.6152L9.28267 7.21798C10.2646 6.24299 10.3577 4.67633 9.50072 3.53189L7.75073 1.19441C6.68963 -0.222249 4.64103 -0.409748 3.42576 0.798577L1.24522 2.96523C0.643837 3.56523 0.241061 4.34022 0.289672 5.20133C0.414671 7.40548 1.41189 12.1457 6.97296 17.6762C12.8715 23.5401 18.4062 23.7734 20.6687 23.5623C21.3854 23.4956 22.0076 23.1318 22.509 22.6318L24.4812 20.6707C25.8145 19.3471 25.4395 17.0762 23.734 16.1499L21.0812 14.7068C19.9618 14.0985 18.6007 14.2777 17.7257 15.1471Z" fill="#242424"/>
</svg>
